{
	"asset":{
		"generator":"Khronos glTF Blender I/O v3.5.30",
		"version":"2.0"
	},
	"scene":0,
	"scenes":[
		{
			"name":"Scene",
			"nodes":[
				0,
				1,
				2,
				3
			]
		}
	],
	"nodes":[
		{
			"mesh":0,
			"name":"Head",
			"rotation":[
				0.7071068286895752,
				0,
				0,
				0.7071068286895752
			],
			"scale":[
				0.2847951054573059,
				0.2749212980270386,
				0.27780288457870483
			],
			"translation":[
				-0.7915973663330078,
				0.986018180847168,
				-2.958651065826416
			]
		},
		{
			"name":"Mesh"
		},
		{
			"name":"Mesh.001"
		},
		{
			"name":"Mesh.002"
		}
	],
	"materials":[
		{
			"doubleSided":true,
			"name":"Material.001",
			"pbrMetallicRoughness":{
				"baseColorFactor":[
					0.800000011920929,
					0.800000011920929,
					0.800000011920929,
					1
				],
				"metallicFactor":0,
				"roughnessFactor":0.5
			}
		}
	],
	"meshes":[
		{
			"name":"female_model",
			"primitives":[
				{
					"attributes":{
						"POSITION":0,
						"TEXCOORD_0":1,
						"NORMAL":2
					},
					"indices":3,
					"material":0
				}
			]
		}
	],
	"accessors":[
		{
			"bufferView":0,
			"componentType":5126,
			"count":4741,
			"max":[
				10.655548095703125,
				6.40651798248291,
				14.922332763671875
			],
			"min":[
				-10.655548095703125,
				-13.032184600830078,
				-12.861572265625
			],
			"type":"VEC3"
		},
		{
			"bufferView":1,
			"componentType":5126,
			"count":4741,
			"type":"VEC2"
		},
		{
			"bufferView":2,
			"componentType":5126,
			"count":4741,
			"type":"VEC3"
		},
		{
			"bufferView":3,
			"componentType":5123,
			"count":27096,
			"type":"SCALAR"
		}
	],
	"bufferViews":[
		{
			"buffer":0,
			"byteLength":56892,
			"byteOffset":0,
			"target":34962
		},
		{
			"buffer":0,
			"byteLength":37928,
			"byteOffset":56892,
			"target":34962
		},
		{
			"buffer":0,
			"byteLength":56892,
			"byteOffset":94820,
			"target":34962
		},
		{
			"buffer":0,
			"byteLength":54192,
			"byteOffset":151712,
			"target":34963
		}
	],
	"buffers":[
		{
			"byteLength":205904,
			"uri":"wtf.bin"
		}
	]
}
